<?xml version="1.0" encoding="utf-8"?>
<!-- Generator: Adobe Illustrator 19.2.1, SVG Export Plug-In . SVG Version: 6.00 Build 0)  -->
<svg version="1.1" id="Calque_1" xmlns="http://www.w3.org/2000/svg" xmlns:xlink="http://www.w3.org/1999/xlink" x="0px" y="0px"
	 viewBox="0 0 1502.3 175" style="enable-background:new 0 0 1502.3 175;" xml:space="preserve">
<style type="text/css">
	.st0{font-family:'Renens-Light';}
	.st1{font-size:83.1893px;}
</style>
<path d="M492.6,161h31.6V3h-31.6V161z M319.3,80.2c0.5-5.4,2-8.8,5.4-11.7c3.8-3.2,9.3-4.7,16-4.7c12.9,0,19.6,5.2,19.6,13.8
	c0,6.3-2.5,9.3-10.8,10.4l-5.2,0.7c-24.8,3.6-59.4,8.4-59.4,39c0,22.6,19.4,36.6,44.2,36.6c20.3,0,29.3-7.2,34.8-12.4h0.2l0.7,9.3
	h28.7v-0.7c-2-3.6-2.7-7.7-2.7-15.3V90.6c0-11.1-0.9-18.1-2.7-23.7c-6.1-19.2-26.4-25.7-46.5-25.7c-28.2,0-49.4,12-51,38.6
	L319.3,80.2z M335.8,141.6c-12,0-19.4-5.2-19.4-14.9c0-3.6,1.4-6.8,3.6-9c3.2-3.2,9.3-5.2,17.8-7.4l7-1.8c8.1-2,14-3.6,16.7-4.7V118
	c0,5.6-0.5,7.7-1.1,9.7C356.7,137.7,345.9,141.6,335.8,141.6 M239.8,83.6c-3.2-25.5-24.1-42.4-53.3-42.4
	c-36.8,0-59.6,25.5-59.6,61.4c0,36.8,21.2,61.4,59.4,61.4c30.2,0,49.9-17.2,54.4-42.4H210c-2.7,9.3-8.6,18.1-23,18.1
	c-16.5,0-27.5-11.3-27.5-36.8c0-24.4,10.6-37.5,26.9-37.5c13.5,0,20.5,9,22.3,18.3C208.7,83.6,239.8,83.6,239.8,83.6z M62.5,64.2
	c15.8,0,25.5,11.1,26,26h-52C37.9,75.2,47.3,64.2,62.5,64.2 M86.8,127.1c-3.4,6.3-10.2,12.6-22.8,12.6c-14.4,0-26.4-8.6-28-28.9
	h84.2v-2.9c0-38.1-19-66.8-57.8-66.8C26.8,41.1,4,67.5,4,102.5s21.7,61.4,59.6,61.4c28,0,47.2-14.7,55.3-36.8
	C118.9,127.1,86.8,127.1,86.8,127.1z M98.6,3H60.2L44.8,32.1H73L98.6,3z"/>
<text transform="matrix(1 0 0 1 644.4243 160.7165)" class="st0 st1">M&amp;ID ASSIGNMENTS</text>
</svg>
