<?xml version="1.0" encoding="utf-8"?>
<!-- Generator: Adobe Illustrator 19.2.1, SVG Export Plug-In . SVG Version: 6.00 Build 0)  -->
<svg version="1.1" id="Layer_1" xmlns:sketch="http://www.bohemiancoding.com/sketch/ns"
	 xmlns="http://www.w3.org/2000/svg" xmlns:xlink="http://www.w3.org/1999/xlink" x="0px" y="0px" viewBox="0 0 100 100"
	 style="enable-background:new 0 0 100 100;" xml:space="preserve">
<style type="text/css">
	.st0{fill:#FFFFFF;}
	.st1{fill:#CCCCCC;}
	.st2{clip-path:url(#SVGID_2_);fill:#ADADAD;}
	.st3{fill:#DDDDDD;}
</style>
<g>
	<polygon class="st0" points="0,0 100,0 100,100 0,99.2 	"/>
	<path id="Mask_1_" class="st1" d="M100,100l0.1-4.7c0,0-7.1-1.6-17.2-4.3c-3.7-1-10.3-4.9-10.3-17.7c0-2.5,0-9.3,0-9.3H50.4H28.3
		c0,0,0,6.8,0,9.3c0,12.9-6.7,16.7-10.3,17.7C7.7,93.9,0,96.6,0,95.7l0,4.2"/>
	<g>
		<g>
			<g>
				<defs>
					<path id="SVGID_1_" d="M100,100l-0.2-5.5c0,0-6.8-1.5-16.9-4.1c-3.7-1-10.3-4.9-10.3-17.7c0-2.5,0-9.3,0-9.3H50.4H28.3
						c0,0,0,6.8,0,9.3c0,12.9-6.7,16.7-10.3,17.7C7.7,93.2,0,95.9,0,95l0,4.2"/>
				</defs>
				<clipPath id="SVGID_2_">
					<use xlink:href="#SVGID_1_"  style="overflow:visible;"/>
				</clipPath>
				<path id="head-shadow" class="st2" d="M50.4,90.1c18.8,0,34-27.5,34-50.8c0-23.9-15.2-36.5-34-36.5s-34,12.6-34,36.5
					C16.4,62.6,31.7,90.1,50.4,90.1z"/>
			</g>
		</g>
	</g>
	<path id="head" class="st3" d="M50.4,84c18.8,0,34-24.1,34-45.8c0-22.3-15.2-34-34-34s-34,11.7-34,34C16.4,59.9,31.7,84,50.4,84z"
		/>
</g>
</svg>
